<svg width="16" height="16" viewBox="0 0 16 16" fill="none" xmlns="http://www.w3.org/2000/svg">
<path d="M4.574 1.81885L5.36904 1.59645C6.11457 1.38827 6.91108 1.72511 7.23028 2.38326L7.86572 3.6944C8.14206 4.26527 7.98837 4.937 7.48593 5.35465L6.08575 6.51709C6.1722 7.21274 6.43968 7.8974 6.88744 8.57107C7.31264 9.22285 7.88298 9.79334 8.5647 10.2488L10.2464 9.75743C10.8833 9.57188 11.5779 9.78588 11.968 10.2882L12.879 11.4584C13.3334 12.0429 13.2514 12.8484 12.6877 13.3437L12.084 13.8744C11.4825 14.4026 10.6232 14.5947 9.82892 14.3774C7.95217 13.8654 6.22836 12.3454 4.65454 9.81755C3.07851 7.2858 2.52213 5.13678 2.98615 3.37308C3.18121 2.63088 3.78488 2.03932 4.574 1.81885Z" fill="#121214" fill-opacity="0.3"/>
</svg>
