<svg width="32" height="32" viewBox="0 0 32 32" fill="none" xmlns="http://www.w3.org/2000/svg">
<g clip-path="url(#clip0_47234_6106)">
<rect width="32" height="32" rx="8" fill="#332D2B"/>
<path d="M24.3647 26.7405H25.6713V5.35859H24.3647V26.7405Z" fill="#46B361"/>
<path d="M12.9232 22.4865C10.8071 22.4865 9.09213 20.6875 9.09213 18.4678C9.09213 16.2486 10.8071 14.4496 12.9232 14.4496C15.0388 14.4496 16.7543 16.2486 16.7543 18.4678C16.7543 20.6875 15.0388 22.4865 12.9232 22.4865ZM13.3513 11.3799C11.8397 11.3799 10.4508 11.9228 9.33361 12.8265V6.88265H5.91992V25.2167H9.33361V24.1096C10.4508 25.0133 11.8397 25.5557 13.3513 25.5557C17.0271 25.5557 20.0066 22.3823 20.0066 18.4678C20.0066 14.5532 17.0271 11.3799 13.3513 11.3799Z" fill="#46B361"/>
</g>
<defs>
<clipPath id="clip0_47234_6106">
<rect width="32" height="32" fill="white"/>
</clipPath>
</defs>
</svg>
