<svg width="32" height="32" viewBox="0 0 32 32" fill="none" xmlns="http://www.w3.org/2000/svg">
<g clip-path="url(#clip0_47234_6130)">
<rect width="32" height="32" rx="8" fill="#006699"/>
<path fill-rule="evenodd" clip-rule="evenodd" d="M10.1024 26.7874V12.3376H5.29954V26.7874H10.1024ZM7.70094 10.3647C9.37579 10.3647 10.4182 9.25515 10.4182 7.86849C10.387 6.45062 9.37579 5.37183 7.73271 5.37183C6.08981 5.37183 5.01562 6.45062 5.01562 7.86849C5.01562 9.25515 6.05786 10.3647 7.66964 10.3647H7.70094Z" fill="white"/>
<path fill-rule="evenodd" clip-rule="evenodd" d="M12.7599 26.7874H17.5627V18.718C17.5627 18.2862 17.594 17.8547 17.7208 17.546C18.068 16.6831 18.8582 15.7895 20.185 15.7895C21.923 15.7895 22.6182 17.1146 22.6182 19.0571V26.7874H27.4206V18.5021C27.4206 14.0638 25.0511 11.9985 21.8912 11.9985C19.3002 11.9985 18.1628 13.4468 17.5308 14.4332H17.5629V12.3376H12.7601C12.8231 13.6935 12.7599 26.7874 12.7599 26.7874Z" fill="white"/>
</g>
<defs>
<clipPath id="clip0_47234_6130">
<rect width="32" height="32" fill="white"/>
</clipPath>
</defs>
</svg>
