<svg width="32" height="32" viewBox="0 0 32 32" fill="none" xmlns="http://www.w3.org/2000/svg">
<path d="M16.0084 0.242432C9.42848 0.242432 7.50412 0.24922 7.13006 0.28025C5.77975 0.392492 4.93951 0.605098 4.02412 1.06086C3.31866 1.41116 2.7623 1.81722 2.21321 2.38643C1.21321 3.42449 0.607147 4.70158 0.387753 6.21964C0.281087 6.95661 0.250056 7.10692 0.243753 10.8713C0.241329 12.1261 0.243753 13.7775 0.243753 15.9925C0.243753 22.567 0.251026 24.4895 0.282541 24.8628C0.391632 26.1767 0.597693 27.0034 1.03406 27.9076C1.868 29.6386 3.46072 30.9379 5.33709 31.4228C5.98678 31.5901 6.70436 31.6822 7.62557 31.7258C8.01587 31.7428 11.9941 31.7549 15.9747 31.7549C19.9553 31.7549 23.9359 31.7501 24.3165 31.7307C25.3831 31.6805 26.0025 31.5973 26.6874 31.4204C28.5759 30.9331 30.1395 29.6531 30.9904 27.8979C31.4183 27.0155 31.6353 26.1573 31.7334 24.912C31.7548 24.6405 31.7638 20.3115 31.7638 15.9884C31.7638 11.6645 31.7541 7.34352 31.7327 7.07201C31.6333 5.80655 31.4164 4.95564 30.9747 4.05625C30.6122 3.32001 30.2098 2.77019 29.6256 2.20801C28.5829 1.21213 27.3078 0.606068 25.7882 0.386916C25.052 0.280492 24.9053 0.248977 21.1381 0.242432H16.0084Z" fill="url(#paint0_radial_47234_6133)"/>
<path d="M16.0084 0.242432C9.42848 0.242432 7.50412 0.24922 7.13006 0.28025C5.77975 0.392492 4.93951 0.605098 4.02412 1.06086C3.31866 1.41116 2.7623 1.81722 2.21321 2.38643C1.21321 3.42449 0.607147 4.70158 0.387753 6.21964C0.281087 6.95661 0.250056 7.10692 0.243753 10.8713C0.241329 12.1261 0.243753 13.7775 0.243753 15.9925C0.243753 22.567 0.251026 24.4895 0.282541 24.8628C0.391632 26.1767 0.597693 27.0034 1.03406 27.9076C1.868 29.6386 3.46072 30.9379 5.33709 31.4228C5.98678 31.5901 6.70436 31.6822 7.62557 31.7258C8.01587 31.7428 11.9941 31.7549 15.9747 31.7549C19.9553 31.7549 23.9359 31.7501 24.3165 31.7307C25.3831 31.6805 26.0025 31.5973 26.6874 31.4204C28.5759 30.9331 30.1395 29.6531 30.9904 27.8979C31.4183 27.0155 31.6353 26.1573 31.7334 24.912C31.7548 24.6405 31.7638 20.3115 31.7638 15.9884C31.7638 11.6645 31.7541 7.34352 31.7327 7.07201C31.6333 5.80655 31.4164 4.95564 30.9747 4.05625C30.6122 3.32001 30.2098 2.77019 29.6256 2.20801C28.5829 1.21213 27.3078 0.606068 25.7882 0.386916C25.052 0.280492 24.9053 0.248977 21.1381 0.242432H16.0084Z" fill="url(#paint1_radial_47234_6133)"/>
<path d="M16.0011 4.36377C12.8409 4.36377 12.4443 4.37759 11.203 4.43407C9.96425 4.4908 9.11868 4.68692 8.3788 4.97468C7.61347 5.27189 6.96425 5.66947 6.31747 6.3165C5.67019 6.96328 5.27262 7.6125 4.97444 8.37759C4.68595 9.11771 4.48959 9.96353 4.43383 11.2018C4.37831 12.443 4.36377 12.8399 4.36377 16.0001C4.36377 19.1604 4.37783 19.5558 4.43407 20.797C4.49104 22.0358 4.68716 22.8813 4.97468 23.6212C5.27213 24.3866 5.66971 25.0358 6.31674 25.6826C6.96328 26.3298 7.6125 26.7284 8.37734 27.0256C9.11771 27.3133 9.96353 27.5095 11.2021 27.5662C12.4433 27.6227 12.8396 27.6365 15.9996 27.6365C19.1601 27.6365 19.5555 27.6227 20.7967 27.5662C22.0355 27.5095 22.8821 27.3133 23.6224 27.0256C24.3875 26.7284 25.0358 26.3298 25.6823 25.6826C26.3296 25.0358 26.7272 24.3866 27.0253 23.6215C27.3114 22.8813 27.5078 22.0355 27.5659 20.7972C27.6217 19.556 27.6363 19.1604 27.6363 16.0001C27.6363 12.8399 27.6217 12.4433 27.5659 11.2021C27.5078 9.96328 27.3114 9.11771 27.0253 8.37783C26.7272 7.6125 26.3296 6.96328 25.6823 6.3165C25.035 5.66922 24.3878 5.27165 23.6217 4.97468C22.8799 4.68692 22.0338 4.4908 20.795 4.43407C19.5538 4.37759 19.1587 4.36377 15.9975 4.36377H16.0011ZM14.9572 6.46074C15.267 6.46025 15.6127 6.46074 16.0011 6.46074C19.108 6.46074 19.4763 6.47189 20.7032 6.52765C21.8377 6.57953 22.4535 6.7691 22.8636 6.92838C23.4067 7.13928 23.7938 7.39141 24.2009 7.79868C24.6081 8.20595 24.8603 8.59383 25.0716 9.13686C25.2309 9.54656 25.4207 10.1623 25.4724 11.2969C25.5281 12.5235 25.5403 12.892 25.5403 15.9975C25.5403 19.1029 25.5281 19.4714 25.4724 20.6981C25.4205 21.8326 25.2309 22.4484 25.0716 22.8581C24.8607 23.4011 24.6081 23.7878 24.2009 24.1948C23.7936 24.6021 23.4069 24.8542 22.8636 25.0651C22.4539 25.2251 21.8377 25.4142 20.7032 25.4661C19.4765 25.5218 19.108 25.534 16.0011 25.534C12.8939 25.534 12.5257 25.5218 11.299 25.4661C10.1645 25.4137 9.54874 25.2241 9.13831 25.0649C8.59528 24.854 8.20741 24.6018 7.80013 24.1946C7.39286 23.7873 7.14074 23.4004 6.92934 22.8571C6.77007 22.4474 6.58025 21.8316 6.52862 20.6971C6.47286 19.4704 6.46171 19.102 6.46171 15.9946C6.46171 12.8872 6.47286 12.5206 6.52862 11.294C6.5805 10.1594 6.77007 9.54365 6.92934 9.13347C7.14025 8.59044 7.39286 8.20256 7.80013 7.79528C8.20741 7.38801 8.59528 7.13589 9.13831 6.9245C9.5485 6.7645 10.1645 6.57541 11.299 6.52328C12.3725 6.4748 12.7885 6.46025 14.9572 6.45783V6.46074ZM22.2125 8.39286C21.4416 8.39286 20.8161 9.01759 20.8161 9.78874C20.8161 10.5596 21.4416 11.1851 22.2125 11.1851C22.9834 11.1851 23.6089 10.5596 23.6089 9.78874C23.6089 9.01783 22.9834 8.39238 22.2125 8.39238V8.39286ZM16.0011 10.0244C12.701 10.0244 10.0253 12.7 10.0253 16.0001C10.0253 19.3003 12.701 21.9747 16.0011 21.9747C19.3012 21.9747 21.9759 19.3003 21.9759 16.0001C21.9759 12.7 19.3012 10.0244 16.0011 10.0244ZM16.0011 12.1213C18.1432 12.1213 19.8799 13.8578 19.8799 16.0001C19.8799 18.1422 18.1432 19.8789 16.0011 19.8789C13.8588 19.8789 12.1223 18.1422 12.1223 16.0001C12.1223 13.8578 13.8588 12.1213 16.0011 12.1213Z" fill="white"/>
<defs>
<radialGradient id="paint0_radial_47234_6133" cx="0" cy="0" r="1" gradientUnits="userSpaceOnUse" gradientTransform="translate(8.6155 34.182) rotate(-90) scale(31.2312 29.0554)">
<stop stop-color="#FFDD55"/>
<stop offset="0.1" stop-color="#FFDD55"/>
<stop offset="0.5" stop-color="#FF543E"/>
<stop offset="1" stop-color="#C837AB"/>
</radialGradient>
<radialGradient id="paint1_radial_47234_6133" cx="0" cy="0" r="1" gradientTransform="matrix(2.74087 13.6889 -56.4405 11.301 -5.03727 2.51254)" gradientUnits="userSpaceOnUse">
<stop stop-color="#3771C8"/>
<stop offset="0.128" stop-color="#3771C8"/>
<stop offset="1" stop-color="#6600FF" stop-opacity="0"/>
</radialGradient>
</defs>
</svg>
