<svg width="16" height="16" viewBox="0 0 16 16" fill="none" xmlns="http://www.w3.org/2000/svg">
<path d="M4.66667 7.33317V12.6665C4.66667 12.8433 4.59643 13.0129 4.4714 13.1379C4.34638 13.2629 4.17681 13.3332 4 13.3332H2.66667C2.48986 13.3332 2.32029 13.2629 2.19526 13.1379C2.07024 13.0129 2 12.8433 2 12.6665V7.99984C2 7.82303 2.07024 7.65346 2.19526 7.52843C2.32029 7.40341 2.48986 7.33317 2.66667 7.33317H4.66667ZM4.66667 7.33317C5.37391 7.33317 6.05219 7.05222 6.55228 6.55212C7.05238 6.05202 7.33333 5.37375 7.33333 4.6665V3.99984C7.33333 3.64622 7.47381 3.30708 7.72386 3.05703C7.97391 2.80698 8.31304 2.6665 8.66667 2.6665C9.02029 2.6665 9.35943 2.80698 9.60947 3.05703C9.85952 3.30708 10 3.64622 10 3.99984V7.33317H12C12.3536 7.33317 12.6928 7.47365 12.9428 7.72369C13.1929 7.97374 13.3333 8.31288 13.3333 8.6665L12.6667 11.9998C12.5708 12.4088 12.3889 12.76 12.1484 13.0005C11.908 13.241 11.6219 13.3577 11.3333 13.3332H6.66667C6.13623 13.3332 5.62753 13.1225 5.25245 12.7474C4.87738 12.3723 4.66667 11.8636 4.66667 11.3332" stroke="#121214" stroke-opacity="0.3" stroke-width="1.33333" stroke-linecap="round" stroke-linejoin="round"/>
</svg>
