<svg width="24" height="18" viewBox="0 0 24 18" fill="none" xmlns="http://www.w3.org/2000/svg">
<path d="M24 13.2207C24 15.8897 21.7344 18 18.8691 18C16.0038 18 13.6716 15.9517 13.5384 12.6C13.3385 8.44138 15.7373 2.91724 20.9348 0L24 2.04828C21.6678 3.66207 20.1352 5.64828 19.4022 7.82069C19.2689 8.1931 19.4022 8.50345 19.802 8.50345C22.2009 8.93793 24 10.8621 24 13.2207ZM10.4732 13.2207C10.4732 15.8897 8.20758 18 5.34229 18C2.477 18 0.144791 15.9517 0.0115216 12.6C-0.188382 8.44138 2.21047 2.91724 7.40797 0L10.4732 2.04828C8.14095 3.66207 6.60835 5.64828 5.87537 7.82069C5.7421 8.1931 5.87537 8.50345 6.27518 8.50345C8.67403 8.93793 10.4732 10.8621 10.4732 13.2207Z" fill="#D5E4FF"/>
</svg>
