<svg width="104" height="88" viewBox="0 0 104 88" fill="none" xmlns="http://www.w3.org/2000/svg">
<path fill-rule="evenodd" clip-rule="evenodd" d="M19.8889 24.8889C19.8889 20.9401 21.4809 17.1531 24.3148 14.3609C27.1487 11.5686 30.9923 10 35 10C39.0077 10 42.8513 11.5686 45.6852 14.3609C48.5191 17.1531 50.1111 20.9401 50.1111 24.8889C50.1111 28.8377 48.5191 32.6247 45.6852 35.4169C42.8513 38.2091 39.0077 39.7778 35 39.7778C30.9923 39.7778 27.1487 38.2091 24.3148 35.4169C21.4809 32.6247 19.8889 28.8377 19.8889 24.8889ZM19.8889 47.2222C14.8792 47.2222 10.0748 49.183 6.53243 52.6733C2.99007 56.1636 1 60.8974 1 65.8333C1 68.7949 2.19404 71.6352 4.31946 73.7294C6.44487 75.8235 9.32755 77 12.3333 77H57.6667C60.6725 77 63.5551 75.8235 65.6805 73.7294C67.806 71.6352 69 68.7949 69 65.8333C69 60.8974 67.0099 56.1636 63.4676 52.6733C59.9252 49.183 55.1208 47.2222 50.1111 47.2222H19.8889Z" fill="white" fill-opacity="0.3"/>
<path fill-rule="evenodd" clip-rule="evenodd" d="M53.8889 24.8889C53.8889 20.9401 55.4809 17.1531 58.3148 14.3609C61.1487 11.5686 64.9923 10 69 10C73.0077 10 76.8513 11.5686 79.6852 14.3609C82.5191 17.1531 84.1111 20.9401 84.1111 24.8889C84.1111 28.8377 82.5191 32.6247 79.6852 35.4169C76.8513 38.2091 73.0077 39.7778 69 39.7778C64.9923 39.7778 61.1487 38.2091 58.3148 35.4169C55.4809 32.6247 53.8889 28.8377 53.8889 24.8889ZM53.8889 47.2222C48.8792 47.2222 44.0748 49.183 40.5324 52.6733C36.9901 56.1636 35 60.8974 35 65.8333C35 68.7949 36.194 71.6352 38.3195 73.7294C40.4449 75.8235 43.3275 77 46.3333 77H91.6667C94.6725 77 97.5551 75.8235 99.6805 73.7294C101.806 71.6352 103 68.7949 103 65.8333C103 60.8974 101.01 56.1636 97.4676 52.6733C93.9252 49.183 89.1208 47.2222 84.1111 47.2222H53.8889Z" fill="white" fill-opacity="0.3"/>
</svg>
