<svg width="32" height="48" viewBox="0 0 32 48" fill="none" xmlns="http://www.w3.org/2000/svg">
<path opacity="0.6" d="M16 0C24.8366 0 32 7.16344 32 16C32 20.5755 30.079 24.702 27 27.6182V48L16 43L5 48V27.6182C1.92101 24.702 0 20.5755 0 16C0 7.16344 7.16344 0 16 0ZM16 6C10.4772 6 6 10.4772 6 16C6 21.5228 10.4772 26 16 26C21.5228 26 26 21.5228 26 16C26 10.4772 21.5228 6 16 6ZM16 8C20.4183 8 24 11.5817 24 16C24 20.4183 20.4183 24 16 24C11.5817 24 8 20.4183 8 16C8 11.5817 11.5817 8 16 8Z" fill="url(#paint0_linear_47301_3451)"/>
<defs>
<linearGradient id="paint0_linear_47301_3451" x1="68.5" y1="-33.5" x2="-3.78429e-06" y2="48" gradientUnits="userSpaceOnUse">
<stop stop-color="#06BF9D" stop-opacity="0"/>
<stop offset="1" stop-color="#06BF9D"/>
</linearGradient>
</defs>
</svg>
