<svg width="176" height="24" viewBox="0 0 176 24" fill="none" xmlns="http://www.w3.org/2000/svg">
<g clip-path="url(#clip0_45528_223)">
<rect x="82.9989" width="93" height="24" rx="12" fill="#662DDF"/>
<g clip-path="url(#clip1_45528_223)">
<path d="M100.911 7.32654H93.6302C93.5239 7.32654 93.4379 7.41127 93.4379 7.51483V9.14758C93.4407 9.25114 93.5252 9.33318 93.6302 9.33318H96.1766L96.1834 16.2555C96.1834 16.6725 96.4412 16.9281 96.8735 16.9281H97.1136C97.5064 16.9375 97.8732 16.7344 98.0696 16.3994C98.2688 16.0794 98.3656 15.5548 98.3656 14.7936V9.33318H100.909C101.016 9.33184 101.1 9.2471 101.1 9.14354V7.51483C101.102 7.41127 101.016 7.32654 100.911 7.32654Z" fill="white"/>
<path d="M110.52 7.32654H108.693C108.588 7.32654 108.502 7.41127 108.502 7.51483V13.1595C108.502 14.1763 107.78 14.9093 106.787 14.9093C105.794 14.9093 105.086 14.1709 105.086 13.1461V7.51483C105.085 7.40992 104.999 7.32654 104.894 7.32654H103.068C102.962 7.32654 102.876 7.41127 102.876 7.51483V13.2362C102.869 14.2583 103.281 15.2388 104.017 15.957C104.754 16.6751 105.752 17.072 106.787 17.0558C108.988 17.0558 110.712 15.3787 110.712 13.2375V7.51483C110.711 7.40992 110.625 7.32654 110.52 7.32654Z" fill="white"/>
<path d="M150.68 7.32604C148.479 7.32604 146.755 9.00317 146.755 11.1443V16.2511C146.755 16.672 147.015 16.9235 147.453 16.9235H147.697C148.094 16.9316 148.465 16.7258 148.663 16.3856C148.866 16.06 148.964 15.5261 148.964 14.7514V11.2169C148.964 10.1988 149.684 9.46717 150.678 9.46717C151.673 9.46717 152.378 10.2096 152.378 11.2358V16.2511C152.378 16.672 152.64 16.9235 153.076 16.9235H153.322C153.718 16.9302 154.088 16.7244 154.287 16.3856C154.49 16.06 154.589 15.5261 154.589 14.7514V11.1443C154.594 10.1235 154.184 9.14304 153.448 8.42485C152.713 7.70665 151.715 7.3099 150.68 7.32604Z" fill="white"/>
<path d="M126.022 17.0561C128.047 17.0615 129.876 15.8631 130.654 14.0192C131.431 12.1753 131.006 10.0503 129.574 8.63811C128.141 7.22593 125.988 6.80496 124.117 7.57157C122.247 8.33818 121.03 10.1418 121.036 12.139C121.034 13.4436 121.559 14.6957 122.494 15.617C123.429 16.5396 124.699 17.0574 126.022 17.0561ZM126.022 9.33748C127.581 9.35765 128.837 10.6017 128.852 12.139C128.84 13.6722 127.573 14.9069 126.018 14.9001C124.463 14.8934 123.206 13.648 123.207 12.1148C123.208 10.5815 124.467 9.33748 126.022 9.33344V9.33748Z" fill="white"/>
<path d="M142.538 9.33331C142.432 9.33466 142.346 9.41804 142.346 9.52295V16.2584C142.346 16.6753 142.605 16.9308 143.037 16.9308H143.279C143.671 16.9403 144.038 16.7371 144.235 16.4023C144.435 16.0809 144.532 15.555 144.532 14.787V9.52295C144.532 9.47184 144.511 9.42342 144.475 9.38845C144.438 9.35349 144.389 9.33331 144.338 9.33331H142.538Z" fill="white"/>
<path d="M164.265 11.596H161.434C161.327 11.596 161.241 11.6807 161.241 11.7856V13.3713C161.241 13.4762 161.327 13.5609 161.434 13.5609H162.635L162.652 14.6517C162.188 14.8158 161.7 14.9018 161.206 14.9086C159.668 14.8924 158.432 13.651 158.444 12.134C158.444 10.5806 159.673 9.31767 161.192 9.31767C161.876 9.31633 162.536 9.56514 163.044 10.0143C163.132 10.1018 163.252 10.1488 163.375 10.1462C163.499 10.1435 163.616 10.091 163.699 10.0009L164.517 9.15494C164.606 9.06348 164.655 8.94243 164.652 8.816C164.65 8.68958 164.597 8.56988 164.504 8.48246L164.492 8.47171C163.553 7.66474 162.354 7.21419 161.109 7.20074C158.349 7.2115 156.119 9.42257 156.121 12.1447C156.117 13.4493 156.641 14.7014 157.578 15.6227C158.515 16.544 159.786 17.0577 161.109 17.0497C162.305 17.0524 163.481 16.747 164.522 16.166L164.537 16.1553C164.659 16.0719 164.732 15.9361 164.732 15.7895V12.0667C164.733 11.8085 164.526 11.6 164.265 11.596Z" fill="white"/>
<path d="M112.681 9.33318H115.229L115.236 16.2555C115.236 16.6725 115.494 16.9281 115.925 16.9281H116.165C116.557 16.9375 116.924 16.7344 117.121 16.3994C117.32 16.0794 117.417 15.5548 117.417 14.7936V9.33318H119.964C120.071 9.33318 120.157 9.24845 120.157 9.14354V7.51483C120.155 7.40992 120.069 7.32654 119.964 7.32654H112.68C112.574 7.32654 112.488 7.41127 112.488 7.51483V9.14758C112.49 9.25114 112.576 9.33318 112.681 9.33318Z" fill="white"/>
<path d="M143.437 8.16281C144.09 8.16281 144.62 7.64097 144.62 6.99675C144.62 6.35252 144.089 5.83069 143.437 5.83203C142.784 5.83203 142.255 6.35521 142.256 6.99943C142.256 7.64232 142.785 8.16281 143.437 8.16281Z" fill="white"/>
<path d="M137.679 15.8229C137.924 16.2344 138.162 16.5088 138.397 16.6567C138.567 16.7656 138.764 16.8262 138.966 16.8289H139.84C139.995 16.8343 140.139 16.7576 140.218 16.6285C140.296 16.4926 140.296 16.3272 140.218 16.1927L138.501 13.4195C139.643 12.8801 140.376 11.7504 140.394 10.5023C140.394 8.85476 139.017 7.32556 137.324 7.32556H132.909C132.803 7.32556 132.717 7.41029 132.717 7.51385V16.2129C132.717 16.6298 132.975 16.8786 133.406 16.8786H133.647C134.04 16.8894 134.407 16.6863 134.603 16.3501C134.802 16.03 134.899 15.5055 134.899 14.7442V13.6266H136.372L137.679 15.8229ZM134.813 11.8782V9.24479H137.181C137.797 9.24479 138.318 9.93608 138.318 10.5292C138.318 11.1586 137.799 11.8755 137.181 11.8755L134.813 11.8782Z" fill="white"/>
</g>
<g clip-path="url(#clip2_45528_223)">
<path d="M62.5643 6.10382C62.3767 6.08439 62.194 6.08776 62.0107 6.09114C61.94 6.09244 61.8692 6.09374 61.798 6.09374C61.5774 6.09374 61.3702 6.09687 61.1754 6.1058C61.1531 6.10683 61.1313 6.10949 61.1101 6.11366C59.9774 6.18894 59.2685 6.50299 58.7742 7.47243H58.6846V6.78543C58.6846 6.52058 58.4707 6.30588 58.2068 6.30588H55.9818C55.7179 6.30588 55.5039 6.52058 55.5039 6.78543V17.4254C55.5039 17.6902 55.7179 17.9049 55.9818 17.9049H57.0943C57.9726 17.9049 58.6846 17.1904 58.6846 16.3089V12.5774C58.6958 10.2734 59.7038 9.01457 61.5517 9.00333C61.631 9.00554 61.7133 9.00992 61.7981 9.01648C61.9629 9.02923 62.1369 9.05019 62.3157 9.07937C62.6236 9.12962 62.918 8.90102 62.918 8.58796V6.53272C62.918 6.31861 62.7765 6.12579 62.5643 6.10382Z" fill="#121214"/>
<path d="M19.9116 7.23266H20.0012C21.0746 6.31399 21.9051 5.99118 23.5627 5.99118C26.0863 5.99118 27.6953 7.91311 27.7065 11.0264V16.3089C27.7065 17.1904 26.9945 17.9049 26.1162 17.9049H25.0037C24.7398 17.9049 24.5258 17.6902 24.5258 17.4254V11.5659C24.5146 9.88 23.7195 8.91341 22.3755 8.91341C21.0204 8.91341 19.9228 9.85752 19.9116 12.038V16.3089C19.9116 17.1904 19.1996 17.9049 18.3213 17.9049H17.2088C16.9448 17.9049 16.7309 17.6902 16.7309 17.4254V6.78543C16.7309 6.52058 16.9448 6.30588 17.2088 6.30588H19.4337C19.6977 6.30588 19.9116 6.52058 19.9116 6.78543V7.23266Z" fill="#121214"/>
<path d="M0.902136 1.6303C0.638226 1.6303 0.424286 1.845 0.424286 2.10985V17.4254C0.424286 17.624 0.544627 17.7944 0.716135 17.8672C0.773304 17.8915 0.836158 17.9049 0.902135 17.9049H3.26271C3.26371 17.9049 3.2647 17.9049 3.2657 17.9049H9.05903C9.91937 17.9049 10.6168 17.205 10.6168 16.3416V15.2578C10.6168 14.993 10.4029 14.7783 10.139 14.7783H3.74056V2.10985C3.74056 1.845 3.52662 1.6303 3.26271 1.6303H0.902136Z" fill="#121214"/>
<path d="M13.6361 4.66403C14.6815 4.66403 15.5289 3.81382 15.5289 2.76503C15.5289 1.71624 14.6815 0.866028 13.6361 0.866028C12.5908 0.866028 11.7434 1.71624 11.7434 2.76503C11.7434 3.81382 12.5908 4.66403 13.6361 4.66403Z" fill="#121214"/>
<path d="M12.5124 6.30588C12.2485 6.30588 12.0345 6.52058 12.0345 6.78543V17.4254C12.0345 17.6902 12.2485 17.9049 12.5124 17.9049H13.6249C14.5032 17.9049 15.2152 17.1904 15.2152 16.3089V6.78543C15.2152 6.52058 15.0013 6.30588 14.7374 6.30588H12.5124Z" fill="#121214"/>
<path d="M54.3317 12.1054C54.3317 15.4822 51.604 18.2196 48.2391 18.2196C44.8743 18.2196 42.1465 15.4822 42.1465 12.1054C42.1465 8.7286 44.8743 5.99118 48.2391 5.99118C51.604 5.99118 54.3317 8.7286 54.3317 12.1054ZM45.1928 12.1054C45.1928 13.7938 46.5567 15.1625 48.2391 15.1625C49.9215 15.1625 51.2854 13.7938 51.2854 12.1054C51.2854 10.417 49.9215 9.04828 48.2391 9.04828C46.5567 9.04828 45.1928 10.417 45.1928 12.1054Z" fill="#121214"/>
<path fill-rule="evenodd" clip-rule="evenodd" d="M40.9519 16.1072V6.78543C40.9519 6.52058 40.738 6.30588 40.4741 6.30588H38.2491C37.9852 6.30588 37.7712 6.52058 37.7712 6.78543V6.82308C36.921 6.36403 35.9485 6.10357 34.9153 6.10357C31.5814 6.10357 28.8787 8.81584 28.8787 12.1616C28.8787 15.5073 31.5814 18.2196 34.9153 18.2196C35.8566 18.2196 36.7475 18.0034 37.5415 17.6178C37.462 17.8805 37.3489 18.1337 37.2036 18.3708C36.8117 19.0101 36.2099 19.4922 35.5019 19.7341C34.7938 19.976 34.0239 19.9625 33.3247 19.696C32.7753 19.4865 32.2966 19.1311 31.9375 18.6718C31.7746 18.4634 31.4855 18.38 31.256 18.5108L29.2924 19.6303C29.0629 19.7611 28.9811 20.055 29.1281 20.2749C29.8682 21.3819 30.9344 22.2351 32.1834 22.7112C33.5818 23.2443 35.1216 23.2713 36.5376 22.7875C37.9537 22.3037 39.1573 21.5789 39.9411 20.3003C39.9665 20.2588 39.9914 20.2183 40.0157 20.1788C40.6301 19.1793 40.8827 18.7684 40.9452 16.8199C40.9496 16.7937 40.9519 16.7667 40.9519 16.7393V16.5734C40.9547 16.4519 40.9568 16.3249 40.9584 16.1918C40.9587 16.1629 40.9565 16.1346 40.9519 16.1072ZM34.9153 9.25374C36.3478 9.25374 37.5374 10.2969 37.7712 11.6675V12.6557C37.5374 14.0263 36.3478 15.0694 34.9153 15.0694C33.315 15.0694 32.0178 13.7675 32.0178 12.1616C32.0178 10.5556 33.315 9.25374 34.9153 9.25374Z" fill="#121214"/>
<path fill-rule="evenodd" clip-rule="evenodd" d="M71.986 6.7249C71.1296 6.25701 70.1477 5.99118 69.104 5.99118C65.7701 5.99118 63.0674 8.70344 63.0674 12.0492C63.0674 15.3949 65.7701 18.1072 69.104 18.1072C70.1462 18.1072 71.1267 17.8422 71.9823 17.3755V17.4254C71.9823 17.6902 72.1962 17.9049 72.4601 17.9049H73.5726C74.4509 17.9049 75.163 17.1904 75.163 16.3089V6.78543C75.163 6.52058 74.949 6.30588 74.6851 6.30588H72.4601C72.2166 6.30588 72.0157 6.48863 71.986 6.7249ZM71.9823 11.7121C71.8158 10.2649 70.5906 9.14135 69.104 9.14135C67.5037 9.14135 66.2064 10.4432 66.2064 12.0492C66.2064 13.6552 67.5037 14.957 69.104 14.957C70.5906 14.957 71.8158 13.8335 71.9823 12.3863V11.7121Z" fill="#121214"/>
</g>
</g>
<defs>
<clipPath id="clip0_45528_223">
<rect width="175.999" height="24" fill="white"/>
</clipPath>
<clipPath id="clip1_45528_223">
<rect width="70.9169" height="12.5877" fill="white" transform="translate(94.1984 5.72156)"/>
</clipPath>
<clipPath id="clip2_45528_223">
<rect width="77.8471" height="23.0204" fill="white" transform="translate(-3.05176e-05 0.489746)"/>
</clipPath>
</defs>
</svg>
